<svg xmlns="http://www.w3.org/2000/svg" xmlns:xlink="http://www.w3.org/1999/xlink" fill="none" version="1.1" width="11.534502029418945" height="15.990192413330078" viewBox="0 0 11.534502029418945 15.990192413330078"><g transform="matrix(1,0,0,-1,0,31.980384826660156)"><path d="M6.02512,16.10638341333008L11.4503,22.323172413330077C11.5382,22.42353241333008,11.5592,22.566042413330077,11.5041,22.68751241333008C11.449,22.808992413330078,11.3279,22.886972413330078,11.1945,22.886882413330078L8.52783,22.886882413330078C8.35825,22.885422413330076,8.2142,23.01061241333008,8.192,23.178732413330078C7.9921,24.625992413330078,6.78472,31.02669241333008,1.06767,31.97419241333008C0.914002,32.00389241333008,0.759946,31.924692413330078,0.694541,31.78259241333008C0.629135,31.640392413330076,0.669297,31.471892413330078,0.791815,31.374492413330078C1.77131,30.60689241333008,3.05065,29.11969241333008,3.41046,26.472992413330076C3.5486,25.397862413330078,3.61538,24.314712413330078,3.61036,23.230712413330078C3.61041,23.04169241333008,3.4595,22.88723241333008,3.27054,22.882892413330076L0.340049,22.882892413330076C0.206644,22.88297241333008,0.0855286,22.804992413330076,0.0303903,22.683522413330078C-0.0247483,22.56204241333008,-0.00370955,22.419542413330078,0.0841808,22.31918241333008L5.51338,16.10638341333008C5.64878,15.951462213330078,5.88971,15.951462213330078,6.02512,16.10638341333008Z" fill="#8BFF85" fill-opacity="1"/></g></svg>