<svg xmlns="http://www.w3.org/2000/svg" xmlns:xlink="http://www.w3.org/1999/xlink" fill="none" version="1.1" width="24" height="24" viewBox="0 0 24 24"><defs><clipPath id="master_svg0_741_06736"><rect x="0" y="0" width="24" height="24" rx="0"/></clipPath></defs><g clip-path="url(#master_svg0_741_06736)"><g><path d="M17.915984375,8.376000000000001L6.083984375,8.376000000000001L6.083984375,1.8479999999999999C6.083984375,1.656,6.239984375,1.5,6.431984375,1.5L17.567984375,1.5C17.759984375000002,1.5,17.915984375,1.656,17.915984375,1.8479999999999999L17.915984375,8.376000000000001Z" fill="#FFF7D7" fill-opacity="1"/></g><g><path d="M6.083984375,1.5L8.915984375,1.5L8.915984375,7.728L6.083984375,7.728L6.083984375,1.5ZM10.583984375,1.5L13.415984375,1.5L13.415984375,7.728L10.583984375,7.728L10.583984375,1.5ZM15.083984375,1.5L17.915984375,1.5L17.915984375,7.728L15.083984375,7.728L15.083984375,1.5Z" fill="#F94F46" fill-opacity="1"/></g><g><path d="M20.579921875,13.91984375Q20.579921875,14.13047375,20.569621875,14.34084375Q20.559221875,14.55121375,20.538621875,14.76083375Q20.517921875,14.97044375,20.487021875,15.17879375Q20.456121875,15.38714375,20.415021875,15.59374375Q20.373921875,15.80034375,20.322821875,16.00464375Q20.271621875,16.20894375,20.210421875,16.41044375Q20.149321875,16.612043749999998,20.078321875,16.81034375Q20.007421875,17.008643749999997,19.926821875,17.20324375Q19.846221875,17.39784375,19.756121875,17.58824375Q19.666121875,17.77864375,19.566821875,17.96444375Q19.467521875,18.150143749999998,19.359221875,18.33084375Q19.250921875,18.51154375,19.133921875,18.68664375Q19.016921875,18.861743750000002,18.891421875,19.03094375Q18.765921875,19.200143750000002,18.632321875000002,19.36294375Q18.498721875,19.52574375,18.357321875,19.68184375Q18.215821875,19.837843749999998,18.066921875,19.98684375Q17.917921874999998,20.13574375,17.761921875,20.27724375Q17.605821875,20.41864375,17.443021875,20.552243750000002Q17.280221875000002,20.68584375,17.111021875,20.81134375Q16.941821875000002,20.93684375,16.766721875,21.05384375Q16.591621875,21.17084375,16.410921875,21.27914375Q16.230221874999998,21.38744375,16.044521875,21.48674375Q15.858721875,21.58604375,15.668321875,21.67604375Q15.477921875,21.76614375,15.283321875,21.84674375Q15.088721875,21.92734375,14.890421875,21.99824375Q14.692121875,22.06924375,14.490521875,22.13034375Q14.289021875,22.19154375,14.084721875,22.24274375Q13.880421875,22.29384375,13.673821875,22.33494375Q13.467221875,22.37604375,13.258871875,22.40694375Q13.050521875,22.43784375,12.840911875,22.45854375Q12.631291875,22.47914375,12.420921875,22.48954375Q12.210551875,22.49984375,11.999921875,22.49984375Q11.789291875,22.49984375,11.578921875,22.48954375Q11.368551875,22.47914375,11.158931875,22.45854375Q10.949321874999999,22.43784375,10.740971875,22.40694375Q10.532621875,22.37604375,10.326041875,22.33494375Q10.119461874999999,22.29384375,9.915151875,22.24274375Q9.710841875,22.19154375,9.509281875,22.13034375Q9.307721875,22.06924375,9.109401875,21.99824375Q8.911091875,21.92734375,8.716501874999999,21.84674375Q8.521901875000001,21.76614375,8.331501875,21.67604375Q8.141091875,21.58604375,7.955341875,21.48674375Q7.769581875,21.38744375,7.588921875,21.27914375Q7.408261875,21.17084375,7.233131875,21.05384375Q7.058001875,20.93684375,6.888821875,20.81134375Q6.719641875000001,20.68584375,6.556831875,20.552243750000002Q6.394011875,20.41864375,6.237941875000001,20.27724375Q6.0818818750000005,20.13574375,5.932941875,19.98684375Q5.784011875,19.837843749999998,5.642561875,19.68184375Q5.501111874999999,19.52574375,5.367491875,19.36294375Q5.233871875,19.200143750000002,5.108401875,19.03094375Q4.982931875,18.861743750000002,4.865911875,18.68664375Q4.748891875,18.51154375,4.640611875,18.33084375Q4.532321875,18.150143749999998,4.433041875,17.96444375Q4.333747875,17.77864375,4.243693875,17.58824375Q4.153638875,17.39784375,4.073034875,17.20324375Q3.992431875,17.008643749999997,3.921473875,16.81034375Q3.850515875,16.612043749999998,3.789373875,16.41044375Q3.728231875,16.20894375,3.677053875,16.00464375Q3.625875875,15.80034375,3.584783875,15.59374375Q3.543692875,15.38714375,3.512787375,15.17879375Q3.481881975,14.97044375,3.461236875,14.76083375Q3.440591875,14.55121375,3.430256875,14.34084375Q3.419921875,14.13047375,3.419921875,13.91984375Q3.419921875,13.70921375,3.430256875,13.49884375Q3.440591875,13.28846375,3.461236875,13.07885375Q3.481881975,12.869243749999999,3.512787375,12.66089375Q3.543692875,12.45254375,3.584783875,12.24596375Q3.625875875,12.039383749999999,3.677053875,11.83507375Q3.728231875,11.63075375,3.789373875,11.42920375Q3.850515875,11.22764375,3.921473875,11.02932375Q3.992431875,10.83101375,4.073034875,10.636423749999999Q4.153638875,10.441823750000001,4.243693875,10.25142375Q4.333747875,10.06101375,4.433041875,9.87526375Q4.532321875,9.68950375,4.640611875,9.50884375Q4.748891875,9.32818375,4.865911875,9.15305375Q4.982931875,8.97792375,5.108401875,8.80874375Q5.233871875,8.63956375,5.367491875,8.47674375Q5.501111874999999,8.31393375,5.642561875,8.15786375Q5.784011875,8.00180375,5.932941875,7.85286375Q6.0818818750000005,7.70393375,6.237941875000001,7.56248375Q6.394011875,7.421033749999999,6.556831875,7.28741375Q6.719641875000001,7.15379375,6.888821875,7.02832375Q7.058001875,6.90285375,7.233131875,6.78583375Q7.408261875,6.66881375,7.588921875,6.56053375Q7.769581875,6.45224375,7.955341875,6.35296375Q8.141091875,6.25366975,8.331501875,6.16361575Q8.521901875000001,6.07356075,8.716501874999999,5.99295675Q8.911091875,5.91235375,9.109401875,5.84139575Q9.307721875,5.77043775,9.509281875,5.70929575Q9.710831875,5.64815375,9.915151875,5.59697575Q10.119461874999999,5.54579775,10.326041875,5.50470575Q10.532621875,5.46361475,10.740971875,5.43270925Q10.949321874999999,5.40180385,11.158931875,5.38115875Q11.368551875,5.36051375,11.578921875,5.35017875Q11.789291875,5.33984375,11.999921875,5.33984375Q12.210551875,5.33984375,12.420921875,5.35017875Q12.631291875,5.36051375,12.840911875,5.38115875Q13.050521875,5.40180385,13.258871875,5.43270925Q13.467221875,5.46361475,13.673821875,5.50470575Q13.880421875,5.54579775,14.084721875,5.59697575Q14.289021875,5.64815375,14.490521875,5.70929575Q14.692121875,5.77043775,14.890421875,5.84139575Q15.088721875,5.91235375,15.283321875,5.99295675Q15.477921875,6.07356075,15.668321875,6.16361575Q15.858721875,6.25366975,16.044521875,6.35296375Q16.230221874999998,6.45224375,16.410921875,6.56053375Q16.591621875,6.66881375,16.766721875,6.78583375Q16.941821875000002,6.90285375,17.111021875,7.02832375Q17.280221875000002,7.15379375,17.443021875,7.28741375Q17.605821875,7.421033749999999,17.761921875,7.56248375Q17.917921874999998,7.70393375,18.066921875,7.85286375Q18.215821875,8.00180375,18.357321875,8.15786375Q18.498721875,8.31393375,18.632321875000002,8.47674375Q18.765921875,8.63956375,18.891421875,8.80874375Q19.016921875,8.97792375,19.133921875,9.15305375Q19.250921875,9.32818375,19.359221875,9.50884375Q19.467521875,9.68950375,19.566821875,9.87526375Q19.666121875,10.06101375,19.756121875,10.25142375Q19.846221875,10.441823750000001,19.926821875,10.636423749999999Q20.007421875,10.83101375,20.078321875,11.02932375Q20.149321875,11.22764375,20.210421875,11.42920375Q20.271621875,11.63075375,20.322821875,11.83507375Q20.373921875,12.039383749999999,20.415021875,12.24596375Q20.456121875,12.45254375,20.487021875,12.66089375Q20.517921875,12.869243749999999,20.538621875,13.07885375Q20.559221875,13.28846375,20.569621875,13.49884375Q20.579921875,13.70921375,20.579921875,13.91984375Z" fill="#FEE701" fill-opacity="1"/></g><g><path d="M18.3842109375,13.919888671875Q18.3842109375,14.076608671875,18.3765109375,14.233138671875Q18.3688109375,14.389668671875,18.353510937499998,14.545628671875Q18.338110937499998,14.701588671875001,18.315110937500002,14.856618671875001Q18.2921109375,15.011638671875,18.2615109375,15.165348671875Q18.231010937500002,15.319048671874999,18.192910937500002,15.471068671874999Q18.154810937500002,15.623098671875,18.1093109375,15.773068671875Q18.0638109375,15.923038671875,18.0110109375,16.070588671875Q17.9582109375,16.218148671875,17.8982109375,16.362938671875Q17.838310937499998,16.507728671875,17.771310937499997,16.649398671874998Q17.7043109375,16.791068671875,17.630410937500002,16.929288671875Q17.5565109375,17.067498671875,17.4759109375,17.201918671875Q17.3954109375,17.336338671874998,17.3083109375,17.466648671875Q17.2212109375,17.596988671875,17.127910937499998,17.722788671875Q17.034510937500002,17.848688671875,16.9351109375,17.969888671874997Q16.8357109375,18.090988671875,16.7304109375,18.207088671875Q16.6252109375,18.323288671874998,16.5144109375,18.434088671875Q16.403610937499998,18.544888671875,16.2874109375,18.650088671875Q16.1713109375,18.755388671875,16.050210937499997,18.854788671875Q15.9290109375,18.954188671875002,15.8031109375,19.047588671874998Q15.6773109375,19.140888671875,15.5469709375,19.227988671875Q15.4166609375,19.315088671875,15.2822409375,19.395588671875Q15.1478209375,19.476188671875,15.0096109375,19.550088671875002Q14.8713909375,19.623988671875,14.7297209375,19.690988671874997Q14.5880509375,19.757988671874998,14.4432609375,19.817888671875Q14.2984709375,19.877888671875,14.1509109375,19.930688671875Q14.0033609375,19.983488671875,13.8533909375,20.028988671875Q13.7034209375,20.074488671875002,13.551390937499999,20.112588671875002Q13.399370937499999,20.150688671875002,13.2456709375,20.181188671875Q13.0919609375,20.211788671875,12.936940937500001,20.234788671875002Q12.781910937500001,20.257788671874998,12.6259509375,20.273188671874998Q12.4699909375,20.288488671875,12.3134609375,20.296188671875Q12.1569309375,20.303888671875,12.0002109375,20.303888671875Q11.8434909375,20.303888671875,11.6869609375,20.296188671875Q11.5304309375,20.288488671875,11.3744709375,20.273188671874998Q11.2185009375,20.257788671874998,11.0634809375,20.234788671875002Q10.9084609375,20.211788671875,10.754750937499999,20.181188671875Q10.6010509375,20.150688671875002,10.4490209375,20.112588671875002Q10.2970009375,20.074488671875002,10.1470309375,20.028988671875Q9.997060937499999,19.983488671875,9.8495009375,19.930688671875Q9.701950937500001,19.877888671875,9.5571609375,19.817888671875Q9.4123709375,19.757988671874998,9.2707009375,19.690988671874997Q9.1290309375,19.623988671875,8.990810937500001,19.550088671875002Q8.8526009375,19.476188671875,8.7181809375,19.395588671875Q8.5837609375,19.315088671875,8.4534509375,19.227988671875Q8.3231409375,19.140888671875,8.1972709375,19.047588671874998Q8.0713909375,18.954188671875002,7.9502409375,18.854788671875Q7.8291009375,18.755388671875,7.712980937499999,18.650088671875Q7.5968609375,18.544888671875,7.4860409375,18.434088671875Q7.3752209375,18.323288671874998,7.2699809375,18.207088671875Q7.1647309375,18.090988671875,7.0653109375,17.969888671874997Q6.9658909375,17.848688671875,6.8725309375000005,17.722788671875Q6.7791809375,17.596988671875,6.6921109375,17.466648671875Q6.6050409375,17.336338671874998,6.5244709375,17.201918671875Q6.4439019375,17.067498671875,6.3700259375,16.929288671875Q6.2961489375,16.791068671875,6.2291429375,16.649398671874998Q6.1621379375,16.507728671875,6.1021639375,16.362938671875Q6.0421899375,16.218148671875,5.9893939375,16.070588671875Q5.9365969375,15.923038671875,5.8911039375,15.773068671875Q5.8456109375,15.623098671875,5.8075309375,15.471068671874999Q5.7694519375,15.319048671874999,5.7388779375,15.165348671875Q5.7083034375,15.011638671875,5.6853080375,14.856618671875001Q5.6623127375,14.701588671875001,5.6469516375,14.545628671875Q5.6315905375,14.389668671875,5.6239007475,14.233138671875Q5.6162109375,14.076608671875,5.6162109375,13.919888671875Q5.6162109375,13.763168671875,5.6239007475,13.606638671875Q5.6315905375,13.450108671875,5.6469516375,13.294148671875Q5.6623127375,13.138178671875,5.6853080375,12.983158671875Q5.7083034375,12.828138671875,5.7388779375,12.674428671874999Q5.7694519375,12.520728671875,5.8075309375,12.368698671875Q5.8456109375,12.216678671875,5.8911039375,12.066708671875Q5.9365969375,11.916738671874999,5.9893939375,11.769178671875Q6.0421899375,11.621628671875001,6.1021639375,11.476838671875Q6.1621379375,11.332048671875,6.2291429375,11.190378671875Q6.2961489375,11.048708671875,6.3700259375,10.910488671875001Q6.4439019375,10.772278671875,6.5244709375,10.637858671875Q6.6050409375,10.503438671875,6.6921109375,10.373128671875Q6.7791809375,10.242818671875,6.8725309375000005,10.116948671875Q6.9658909375,9.991068671875,7.0653109375,9.869918671875Q7.1647309375,9.748778671875,7.2699809375,9.632658671875Q7.3752209375,9.516538671875,7.4860409375,9.405718671875Q7.5968609375,9.294898671875,7.712980937499999,9.189658671875Q7.8291009375,9.084408671875,7.9502409375,8.984988671875Q8.0713909375,8.885568671875,8.1972709375,8.792208671875Q8.3231409375,8.698858671875,8.4534509375,8.611788671875Q8.5837609375,8.524718671875,8.7181809375,8.444148671875Q8.8526009375,8.363579671875,8.990810937500001,8.289703671875Q9.1290309375,8.215826671875,9.2707009375,8.148820671875Q9.4123709375,8.081815671875,9.5571609375,8.021841671875Q9.701950937500001,7.961867671875,9.8495009375,7.909071671875Q9.997060937499999,7.856274671875,10.1470309375,7.810781671875Q10.2970009375,7.765288671875,10.4490209375,7.727208671875Q10.6010509375,7.689129671875,10.754750937499999,7.658555671875Q10.9084609375,7.627981171875,11.0634809375,7.604985771875Q11.2185009375,7.581990471875,11.3744709375,7.566629371875Q11.5304309375,7.551268271875,11.6869609375,7.543578481875Q11.8434909375,7.535888671875,12.0002109375,7.535888671875Q12.1569309375,7.535888671875,12.3134609375,7.543578481875Q12.4699909375,7.551268271875,12.6259509375,7.566629371875Q12.781910937500001,7.581990471875,12.936940937500001,7.604985771875Q13.0919609375,7.627981171875,13.2456709375,7.658555671875Q13.399370937499999,7.689129671875,13.551390937499999,7.727208671875Q13.7034209375,7.765288671875,13.8533909375,7.810781671875Q14.0033609375,7.856274671875,14.1509109375,7.909071671875Q14.2984709375,7.961867671875,14.4432609375,8.021841671875Q14.5880509375,8.081815671875,14.7297209375,8.148820671875Q14.8713909375,8.215826671875,15.0096109375,8.289703671875Q15.1478209375,8.363579671875,15.2822409375,8.444148671875Q15.4166609375,8.524718671875,15.5469709375,8.611788671875Q15.6773109375,8.698858671875,15.8031109375,8.792208671875Q15.9290109375,8.885568671875,16.050210937499997,8.984988671875Q16.1713109375,9.084408671875,16.2874109375,9.189658671875Q16.403610937499998,9.294898671875,16.5144109375,9.405718671875Q16.6252109375,9.516538671875,16.7304109375,9.632658671875Q16.8357109375,9.748778671875,16.9351109375,9.869918671875Q17.034510937500002,9.991068671875,17.127910937499998,10.116948671875Q17.2212109375,10.242818671875,17.3083109375,10.373128671875Q17.3954109375,10.503438671875,17.4759109375,10.637858671875Q17.5565109375,10.772278671875,17.630410937500002,10.910488671875001Q17.7043109375,11.048708671875,17.771310937499997,11.190378671875Q17.838310937499998,11.332048671875,17.8982109375,11.476838671875Q17.9582109375,11.621628671875001,18.0110109375,11.769178671875Q18.0638109375,11.916738671874999,18.1093109375,12.066708671875Q18.154810937500002,12.216678671875,18.192910937500002,12.368698671875Q18.231010937500002,12.520728671875,18.2615109375,12.674428671874999Q18.2921109375,12.828138671875,18.315110937500002,12.983158671875Q18.338110937499998,13.138178671875,18.353510937499998,13.294148671875Q18.3688109375,13.450108671875,18.3765109375,13.606638671875Q18.3842109375,13.763168671875,18.3842109375,13.919888671875Z" fill="#F5B319" fill-opacity="1"/></g><g><path d="M6.9364630625,8.78405453125C6.8404630625,8.78405453125,6.7564630625,8.74805453125,6.6844627625,8.67605453125C6.5524630625,8.532054531250001,6.5524630625,8.31605453125,6.6964630625,8.18405453125C6.8284620625,8.05205453125,6.9724630625,7.9320545312499995,7.1164630625,7.81205453125C7.1884630625,7.75205453125,7.2604630624999995,7.70405453125,7.3324630625000005,7.64405453125C7.4884630625,7.52405453125,7.7044640625,7.56005453125,7.8244640625,7.71605453125C7.9444640625,7.87205453125,7.9084640625,8.08805453125,7.7524640625,8.20805453125C7.6924640625,8.256054531250001,7.6204640625,8.30405453125,7.5604630625,8.36405453125C7.4284640625,8.47205453125,7.2964630625,8.58005453125,7.1764640625,8.70005453125C7.1044640625,8.74805453125,7.0204630625,8.78405453125,6.9364630625,8.78405453125ZM19.5364140625,13.24805453125C19.3684140625,13.24805453125,19.212414062500002,13.11605453125,19.1884140625,12.948054531250001C19.1164140625,12.420054531249999,18.9844140625,11.90405453125,18.7924140625,11.40005453125C18.156414062499998,9.72005453125,16.9324140625,8.34005453125,15.3364640625,7.52405453125C14.3404640625,7.02005353125,13.2844640625,6.75605353125,12.1804640625,6.74405353125C11.1004640625,6.73205353125,10.0204640625,6.97205353125,9.048464062499999,7.42805453125C8.9044640625,7.48805453125,8.7724640625,7.56005453125,8.6404640625,7.6320545312500006C8.4724640625,7.72805453125,8.256464062500001,7.66805453125,8.160464062500001,7.48805453125C8.0644640625,7.30805453125,8.1244640625,7.10405453125,8.3044640625,7.00805353125C8.4484640625,6.92405253125,8.6044640625,6.85205353125,8.7604640625,6.78005353125C9.8284640625,6.27605353125,11.016464062499999,6.02405313125,12.2044640625,6.03605365725C13.416464062500001,6.04805353125,14.580464062499999,6.33605353125,15.6724640625,6.88805353125C17.4364140625,7.78805453125,18.7804140625,9.30005453125,19.476414062499998,11.13605453125C19.6804140625,11.68805453125,19.8244140625,12.25205453125,19.9084140625,12.82805453125C19.9324140625,13.02005453125,19.8004140625,13.20005453125,19.6084140625,13.224054531250001C19.5604140625,13.24805453125,19.5484140625,13.24805453125,19.5364140625,13.24805453125ZM10.0444640625,16.28404453125L11.5324640625,16.28404453125L11.5324640625,11.916054531250001L10.2724640625,11.916054531250001L10.2724640625,11.064054531250001C10.9684640625,10.93205453125,11.4364640625,10.75205453125,11.8804640625,10.48805453125L12.9004640625,10.48805453125L12.9004640625,16.28404453125L14.196464062499999,16.28404453125L14.196464062499999,17.40004453125L10.0444640625,17.40004453125L10.0444640625,16.28404453125Z" fill="#FFFFFF" fill-opacity="1"/></g></g></svg>