<svg xmlns="http://www.w3.org/2000/svg" xmlns:xlink="http://www.w3.org/1999/xlink" fill="none" version="1.1" width="11.534502029418945" height="15.990192413330078" viewBox="0 0 11.534502029418945 15.990192413330078"><g><path d="M6.02512,0.116191L11.4503,6.33298C11.5382,6.43334,11.5592,6.57585,11.5041,6.69732C11.449,6.8188,11.3279,6.89678,11.1945,6.89669L8.52783,6.89669C8.35825,6.89523,8.2142,7.02042,8.192,7.18854C7.9921,8.6358,6.78472,15.0365,1.06767,15.984C0.914002,16.0137,0.759946,15.9345,0.694541,15.7924C0.629135,15.6502,0.669297,15.4817,0.791815,15.3843C1.77131,14.6167,3.05065,13.1295,3.41046,10.4828C3.5486,9.40767,3.61538,8.32452,3.61036,7.24052C3.61041,7.0515,3.4595,6.89704,3.27054,6.8927L0.340049,6.8927C0.206644,6.89278,0.0855286,6.8148,0.0303903,6.69333C-0.0247483,6.57185,-0.00370955,6.42935,0.0841808,6.32899L5.51338,0.116191C5.64878,-0.0387302,5.88971,-0.0387302,6.02512,0.116191Z" fill="#FF5145" fill-opacity="1"/></g></svg>